<svg xmlns="http://www.w3.org/2000/svg" width="48" height="48" viewBox="0 0 48 48"><path fill="rgba(250, 250, 250, 0.6)" fill-rule="evenodd" d="M40 6.667L31.111 0H8.89L0 6.667l11.179 18.63C10.427 26.7 9.999 28.3 9.999 30c0 5.514 4.487 10 10 10 5.515 0 10-4.486 10-10 0-1.7-.426-3.3-1.178-4.703L40 6.667zm-10.49-4l-2.8 4.666H13.288L10.49 2.667H29.51zM20 18.519L14.889 10H25.11L20 18.52zm-7.106 4.453L3.524 7.358l4.6-3.45 9.788 16.314c-1.94.414-3.672 1.39-5.018 2.75zm9.195-2.752l9.788-16.314 4.599 3.45-9.37 15.616c-1.346-1.36-3.078-2.336-5.017-2.751z" transform="translate(-918 -787) translate(70 780) translate(584) translate(193) translate(71 7) translate(4 4)"/></svg>